# xmcd CD database file
#
# Track frame offsets:
#	150
#	16976
#	30594
#	44343
#	57207
#	71659
#	85373
#	99538
#	113428
#	128723
#	142325
#	161212
#	177473
#	191399
#	206649
#	222033
#	234561
#	245651
#	272171
#	293871
#
# Disc length: 4137 seconds
#
# Revision: 0
# Processed by: cddbd v1.5.2PL0 Copyright (c) Steve Scherf et al.
# Submitted via: CDex 1.75
#
DISCID=2c102714
DTITLE=Billie Holiday - Gold - Disc 3
DYEAR=1949
DGENRE=Jazz
TTITLE0=Autumn In New York
TTITLE1=There Is No Greater Love
TTITLE2=Strange Fruit
TTITLE3=When You're Smiling
TTITLE4=Gloomy Sunday
TTITLE5=The Blues Are Brewin'
TTITLE6=Georgia On My Mind
TTITLE7=The Way You Look Tonight
TTITLE8=Ain't Nobody's Business If I Do
TTITLE9=Easy To Love
TTITLE10=They Can't Take That Away From Me
TTITLE11=Lover Come Back To Me
TTITLE12=I Must Have That Man
TTITLE13=Lover Man
TTITLE14=Tenderly
TTITLE15=Sugar
TTITLE16=I Cried For You
TTITLE17=I Gotta Right To Sing The Blues
TTITLE18=The End Of A Love Affair
TTITLE19=I'll Be Seeing You
EXTD=YEAR: 1949
EXTT0=
EXTT1=
EXTT2=
EXTT3=
EXTT4=
EXTT5=
EXTT6=
EXTT7=
EXTT8=
EXTT9=
EXTT10=
EXTT11=
EXTT12=
EXTT13=
EXTT14=
EXTT15=
EXTT16=
EXTT17=
EXTT18=
EXTT19=
PLAYORDER=
